<svg width="16" height="25" viewBox="0 0 16 25" fill="none" xmlns="http://www.w3.org/2000/svg">
<path d="M8.26333 23.8727C8.06766 24.0559 7.75041 24.0375 7.55475 23.8317L4.36626 20.4769C4.1706 20.2711 4.17061 19.9557 4.36629 19.7725C4.56197 19.5893 4.87921 19.6077 5.07488 19.8136L7.90909 22.7956L10.7435 20.1421C10.9392 19.9589 11.2565 19.9773 11.4521 20.1832C11.6478 20.389 11.6478 20.7044 11.4521 20.8876L8.26333 23.8727ZM7.40801 23.471L7.40814 20.6585L8.41022 20.7165L8.4101 23.529L7.40801 23.471ZM7.40838 15.0334L7.40862 9.40843L8.41071 9.46651L8.41047 15.0915L7.40838 15.0334ZM7.40887 3.78342L7.40899 0.970918L8.41108 1.029L8.41095 3.8415L7.40887 3.78342ZM8.61761 24.2455C8.22625 24.6119 7.59177 24.5751 7.20044 24.1634L0.823466 17.4539C0.432143 17.0422 0.43217 16.4114 0.823527 16.045C1.21488 15.6787 1.84937 15.7154 2.24069 16.1272L7.90912 22.0911L13.578 16.7842C13.9694 16.4179 14.6039 16.4546 14.9952 16.8664C15.3865 17.2781 15.3865 17.9089 14.9951 18.2752L8.61761 24.2455ZM6.90697 23.4419L6.90709 20.6294L8.91127 20.7456L8.91115 23.5581L6.90697 23.4419ZM6.90733 15.0044L6.90758 9.3794L8.91176 9.49555L8.91151 15.1206L6.90733 15.0044ZM6.90782 3.75438L6.90794 0.941879L8.91212 1.05803L8.912 3.87054L6.90782 3.75438Z" fill="white"/>
</svg>
